<?xml version="1.0" standalone="no"?>
<!DOCTYPE svg PUBLIC "-//W3C//DTD SVG 20010904//EN"
 "http://www.w3.org/TR/2001/REC-SVG-20010904/DTD/svg10.dtd">
<svg version="1.0" xmlns="http://www.w3.org/2000/svg"
 width="283.000000pt" height="305.000000pt" viewBox="0 0 283.000000 305.000000"
 preserveAspectRatio="xMidYMid meet">
<g transform="translate(0.000000,305.000000) scale(0.050000,-0.050000)"
fill="#1E0332" stroke="none">
<path d="M429 5439 c-7 -12 63 -135 156 -275 413 -624 584 -1211 473 -1632
-11 -45 -31 -118 -43 -162 -35 -130 -168 -391 -265 -520 -115 -152 -117 -144
64 -250 544 -317 724 -754 594 -1435 -22 -114 -5 -128 110 -86 544 199 1082
-114 1082 -628 0 -179 23 -187 172 -55 330 295 730 283 1069 -30 141 -131 112
-137 318 60 379 361 754 460 1097 290 99 -50 121 -38 145 77 9 43 35 149 59
237 106 394 118 370 -182 370 -132 0 -283 10 -334 21 -52 12 -134 31 -184 43
-1015 237 -1431 1088 -978 2004 79 161 77 169 -83 320 -302 285 -641 527
-1089 777 -177 99 -873 435 -900 435 -6 0 -53 19 -105 42 -155 69 -181 79
-435 174 -88 33 -200 75 -250 94 -316 120 -471 160 -491 129z"/>
</g>
</svg>
